<?xml version="1.0" standalone="no"?>
<!DOCTYPE svg PUBLIC "-//W3C//DTD SVG 20010904//EN"
 "http://www.w3.org/TR/2001/REC-SVG-20010904/DTD/svg10.dtd">
<svg version="1.0" xmlns="http://www.w3.org/2000/svg"
 width="32" height="32" viewBox="0 0 802.000000 980.000000"
 preserveAspectRatio="xMidYMid meet">

<g transform="translate(0.000000,980.000000) scale(0.100000,-0.100000)"
fill="#28a745" stroke="none">
<path d="M3979 9774 c-114 -125 -394 -354 -599 -491 -577 -386 -1397 -651
-2215 -715 -206 -16 -1040 -17 -1108 -2 l-48 12 4 -2227 c3 -1558 8 -2264 16
-2351 15 -172 34 -267 86 -433 138 -446 369 -852 722 -1272 672 -799 1677
-1546 2936 -2181 l228 -115 122 56 c485 224 1286 702 1762 1050 162 119 422
328 580 466 170 149 512 490 655 654 441 507 706 997 845 1564 l33 136 6 2329
7 2328 -23 -6 c-118 -33 -844 -41 -1128 -12 -1162 115 -2080 495 -2741 1133
-59 57 -108 103 -111 103 -2 0 -15 -12 -29 -26z m301 -2043 c106 -27 283 -112
374 -181 214 -163 370 -397 424 -634 11 -51 16 -122 15 -251 0 -222 -17 -306
-97 -470 -65 -132 -125 -213 -237 -320 -95 -91 -178 -149 -294 -205 -150 -72
-239 -90 -455 -90 -176 0 -278 15 -377 55 -385 155 -657 490 -704 865 -16 130
-6 352 20 454 25 93 92 239 151 325 153 227 414 404 685 466 92 22 384 13 495
-14z m-1122 -3331 c426 -924 692 -1509 692 -1520 0 -20 -170 -24 -1135 -24
l-1020 -1 -3 430 c-3 512 11 997 33 1105 10 46 36 118 70 187 47 95 69 127
142 203 151 159 275 237 484 305 135 44 244 64 329 62 l64 -2 344 -745z m1609
738 c-12 -30 -659 -1452 -702 -1545 -27 -57 -51 -103 -55 -103 -9 0 -93 177
-250 525 -67 149 -209 462 -316 697 -107 235 -194 430 -194 433 0 3 342 5 761
5 605 0 760 -3 756 -12z m656 -9 c442 -89 742 -331 857 -691 35 -111 40 -223
40 -917 l0 -674 -1042 6 c-574 4 -1058 9 -1075 13 -18 3 -33 11 -33 16 0 10
335 746 781 1715 l254 553 58 0 c33 0 105 -9 160 -21z"/>
</g>
</svg>
